<svg width="92" height="92" viewBox="0 0 92 92" fill="none" xmlns="http://www.w3.org/2000/svg">
<path d="M80.807 26.8336C80.1446 25.686 79.1962 24.7296 78.054 24.0578C76.9119 23.386 75.6152 23.0216 74.2903 23.0003H25.2237L23.0003 14.337C22.7757 13.5007 22.2745 12.7651 21.5785 12.25C20.8824 11.7349 20.0324 11.4707 19.167 11.5003H11.5003C10.4837 11.5003 9.50864 11.9042 8.78975 12.6231C8.07086 13.3419 7.66699 14.317 7.66699 15.3336C7.66699 16.3503 8.07086 17.3253 8.78975 18.0442C9.50864 18.7631 10.4837 19.167 11.5003 19.167H16.2537L26.8337 58.497C27.0583 59.3332 27.5595 60.0688 28.2555 60.5839C28.9516 61.099 29.8016 61.3633 30.667 61.3336H65.167C65.8749 61.3315 66.5684 61.1334 67.1705 60.7612C67.7727 60.3891 68.2601 59.8575 68.5787 59.2253L81.152 34.0786C81.697 32.9364 81.9507 31.6769 81.8905 30.4127C81.8303 29.1486 81.458 27.919 80.807 26.8336ZM62.7903 53.667H33.5803L27.332 30.667H74.2903L62.7903 53.667Z" fill="#8367D8"/>
<path d="M80.807 26.8336C80.1446 25.686 79.1962 24.7296 78.054 24.0578C76.9119 23.386 75.6152 23.0216 74.2903 23.0003H25.2237L23.0003 14.337C22.7757 13.5007 22.2745 12.7651 21.5785 12.25C20.8824 11.7349 20.0324 11.4707 19.167 11.5003H11.5003C10.4837 11.5003 9.50864 11.9042 8.78975 12.6231C8.07086 13.3419 7.66699 14.317 7.66699 15.3336C7.66699 16.3503 8.07086 17.3253 8.78975 18.0442C9.50864 18.7631 10.4837 19.167 11.5003 19.167H16.2537L26.8337 58.497C27.0583 59.3332 27.5595 60.0688 28.2555 60.5839C28.9516 61.099 29.8016 61.3633 30.667 61.3336H65.167C65.8749 61.3315 66.5684 61.1334 67.1705 60.7612C67.7727 60.3891 68.2601 59.8575 68.5787 59.2253L81.152 34.0786C81.697 32.9364 81.9507 31.6769 81.8905 30.4127C81.8303 29.1486 81.458 27.919 80.807 26.8336ZM62.7903 53.667H33.5803L27.332 30.667H74.2903L62.7903 53.667Z" stroke="#8367D8"/>
<path d="M28.75 80.5C31.9256 80.5 34.5 77.9256 34.5 74.75C34.5 71.5744 31.9256 69 28.75 69C25.5744 69 23 71.5744 23 74.75C23 77.9256 25.5744 80.5 28.75 80.5Z" fill="#8367D8"/>
<path d="M28.75 80.5C31.9256 80.5 34.5 77.9256 34.5 74.75C34.5 71.5744 31.9256 69 28.75 69C25.5744 69 23 71.5744 23 74.75C23 77.9256 25.5744 80.5 28.75 80.5Z" stroke="#8367D8"/>
<path d="M67.084 80.5C70.2596 80.5 72.834 77.9256 72.834 74.75C72.834 71.5744 70.2596 69 67.084 69C63.9083 69 61.334 71.5744 61.334 74.75C61.334 77.9256 63.9083 80.5 67.084 80.5Z" fill="#8367D8"/>
<path d="M67.084 80.5C70.2596 80.5 72.834 77.9256 72.834 74.75C72.834 71.5744 70.2596 69 67.084 69C63.9083 69 61.334 71.5744 61.334 74.75C61.334 77.9256 63.9083 80.5 67.084 80.5Z" stroke="#8367D8"/>
</svg>
