<svg width="92" height="102" viewBox="0 0 92 102" fill="none" xmlns="http://www.w3.org/2000/svg">
<g clip-path="url(#clip0_3017_16164)">
<path d="M3.83301 89.25H49.833V97.75H3.83301V89.25ZM20.0863 34.2975L30.9347 22.27L85.138 82.365L74.2897 94.3925L20.0863 34.2975ZM68.923 28.305L58.0747 40.3325L36.378 16.2775L47.2263 4.25L68.923 28.305ZM14.6813 40.29L36.378 64.345L25.5297 76.3725L3.83301 52.3175L14.6813 40.29Z" fill="#8367D8"/>
<path d="M3.83301 89.25H49.833V97.75H3.83301V89.25ZM20.0863 34.2975L30.9347 22.27L85.138 82.365L74.2897 94.3925L20.0863 34.2975ZM68.923 28.305L58.0747 40.3325L36.378 16.2775L47.2263 4.25L68.923 28.305ZM14.6813 40.29L36.378 64.345L25.5297 76.3725L3.83301 52.3175L14.6813 40.29Z" stroke="#8367D8"/>
</g>
<defs>
<clipPath id="clip0_3017_16164">
<rect width="92" height="102" fill="white"/>
</clipPath>
</defs>
</svg>
