<svg width="18" height="19" viewBox="0 0 18 19" fill="none" xmlns="http://www.w3.org/2000/svg">
<path d="M6.49952 0.970703C7.74308 0.970676 8.96054 1.32737 10.0075 1.99847C11.0544 2.66957 11.8868 3.6269 12.406 4.75688C12.9252 5.88686 13.1094 7.14206 12.9367 8.37356C12.7639 9.60506 12.2416 10.7612 11.4315 11.7047L17.0755 17.3487L16.3685 18.0557L10.7235 12.4107C9.9274 13.0915 8.97852 13.5698 7.9577 13.8049C6.93688 14.04 5.87437 14.0249 4.86066 13.7608C3.84694 13.4968 2.91206 12.9917 2.13563 12.2885C1.35921 11.5853 0.764237 10.7048 0.401398 9.72213C0.0385584 8.73944 -0.0814007 7.68362 0.0517373 6.64458C0.184875 5.60554 0.567165 4.61407 1.16605 3.75461C1.76493 2.89515 2.56267 2.19316 3.49131 1.70844C4.41995 1.22372 5.45199 0.970623 6.49952 0.970703ZM6.49952 1.9707C5.04083 1.9707 3.64189 2.55017 2.61044 3.58162C1.57899 4.61307 0.999525 6.01201 0.999525 7.4707C0.999525 8.92939 1.57899 10.3283 2.61044 11.3598C3.64189 12.3912 5.04083 12.9707 6.49952 12.9707C7.95822 12.9707 9.35716 12.3912 10.3886 11.3598C11.4201 10.3283 11.9995 8.92939 11.9995 7.4707C11.9995 6.01201 11.4201 4.61307 10.3886 3.58162C9.35716 2.55017 7.95822 1.9707 6.49952 1.9707Z" fill="#252525"/>
</svg>
