<svg width="24" height="24" viewBox="0 0 24 24" fill="none" xmlns="http://www.w3.org/2000/svg">
<path d="M20.2499 12.5696V11.9996V11.4221L21.6899 10.1621C21.9554 9.92811 22.1296 9.60784 22.1817 9.25787C22.2339 8.9079 22.1606 8.55076 21.9749 8.24957L20.2049 5.24957C20.0734 5.02177 19.8843 4.83256 19.6566 4.70092C19.4288 4.56928 19.1705 4.49984 18.9074 4.49957C18.7444 4.49832 18.5823 4.52366 18.4274 4.57457L16.6049 5.18957C16.2903 4.98048 15.9621 4.79256 15.6224 4.62707L15.2399 2.73707C15.1714 2.39178 14.9835 2.0816 14.7093 1.86085C14.4351 1.6401 14.0919 1.52283 13.7399 1.52957H10.2299C9.87797 1.52283 9.53483 1.6401 9.2606 1.86085C8.98638 2.0816 8.79853 2.39178 8.72995 2.73707L8.34745 4.62707C8.0054 4.79252 7.67467 4.98043 7.35745 5.18957L5.57245 4.54457C5.41592 4.50379 5.25383 4.48859 5.09245 4.49957C4.8294 4.49984 4.57105 4.56928 4.34332 4.70092C4.11558 4.83256 3.92647 5.02177 3.79495 5.24957L2.02495 8.24957C1.84989 8.55031 1.78483 8.90257 1.84093 9.246C1.89703 9.58943 2.07079 9.90267 2.33245 10.1321L3.74995 11.4296V12.5771L2.33245 13.8371C2.0634 14.0681 1.88489 14.3869 1.82859 14.737C1.7723 15.0871 1.84187 15.4459 2.02495 15.7496L3.79495 18.7496C3.92647 18.9774 4.11558 19.1666 4.34332 19.2982C4.57105 19.4299 4.8294 19.4993 5.09245 19.4996C5.25546 19.5008 5.41758 19.4755 5.57245 19.4246L7.39495 18.8096C7.7096 19.0187 8.03783 19.2066 8.37745 19.3721L8.75995 21.2621C8.82853 21.6074 9.01638 21.9175 9.2906 22.1383C9.56483 22.3591 9.90797 22.4763 10.2599 22.4696H13.7999C14.1519 22.4763 14.4951 22.3591 14.7693 22.1383C15.0435 21.9175 15.2314 21.6074 15.2999 21.2621L15.6824 19.3721C16.0245 19.2066 16.3552 19.0187 16.6724 18.8096L18.4874 19.4246C18.6423 19.4755 18.8044 19.5008 18.9674 19.4996C19.2305 19.4993 19.4888 19.4299 19.7166 19.2982C19.9443 19.1666 20.1334 18.9774 20.2649 18.7496L21.9749 15.7496C22.15 15.4488 22.2151 15.0966 22.159 14.7532C22.1029 14.4097 21.9291 14.0965 21.6674 13.8671L20.2499 12.5696ZM18.9074 17.9996L16.3349 17.1296C15.7327 17.6397 15.0445 18.0384 14.3024 18.3071L13.7699 20.9996H10.2299L9.69745 18.3371C8.96126 18.0608 8.27673 17.6627 7.67245 17.1596L5.09245 17.9996L3.32245 14.9996L5.36245 13.1996C5.22377 12.4232 5.22377 11.6284 5.36245 10.8521L3.32245 8.99957L5.09245 5.99957L7.66495 6.86957C8.26715 6.35949 8.9554 5.96076 9.69745 5.69207L10.2299 2.99957H13.7699L14.3024 5.66207C15.0386 5.93839 15.7232 6.33643 16.3274 6.83957L18.9074 5.99957L20.6774 8.99957L18.6374 10.7996C18.7761 11.5759 18.7761 12.3707 18.6374 13.1471L20.6774 14.9996L18.9074 17.9996Z" fill="#252525"/>
<path d="M12 16.5C11.11 16.5 10.24 16.2361 9.49994 15.7416C8.75991 15.2471 8.18314 14.5443 7.84254 13.7221C7.50195 12.8998 7.41283 11.995 7.58647 11.1221C7.7601 10.2492 8.18868 9.44736 8.81802 8.81802C9.44736 8.18868 10.2492 7.7601 11.1221 7.58647C11.995 7.41283 12.8998 7.50195 13.7221 7.84254C14.5443 8.18314 15.2471 8.75991 15.7416 9.49994C16.2361 10.24 16.5 11.11 16.5 12C16.506 12.5926 16.3937 13.1805 16.1697 13.7292C15.9457 14.2779 15.6145 14.7763 15.1954 15.1954C14.7763 15.6145 14.2779 15.9457 13.7292 16.1697C13.1805 16.3937 12.5926 16.506 12 16.5ZM12 9C11.6035 8.99077 11.2093 9.06205 10.8411 9.20954C10.473 9.35704 10.1386 9.57768 9.85812 9.85812C9.57768 10.1386 9.35704 10.473 9.20954 10.8411C9.06205 11.2093 8.99077 11.6035 9 12C8.99077 12.3965 9.06205 12.7907 9.20954 13.1589C9.35704 13.527 9.57768 13.8615 9.85812 14.1419C10.1386 14.4223 10.473 14.643 10.8411 14.7905C11.2093 14.938 11.6035 15.0092 12 15C12.3965 15.0092 12.7907 14.938 13.1589 14.7905C13.527 14.643 13.8615 14.4223 14.1419 14.1419C14.4223 13.8615 14.643 13.527 14.7905 13.1589C14.938 12.7907 15.0092 12.3965 15 12C15.0092 11.6035 14.938 11.2093 14.7905 10.8411C14.643 10.473 14.4223 10.1386 14.1419 9.85812C13.8615 9.57768 13.527 9.35704 13.1589 9.20954C12.7907 9.06205 12.3965 8.99077 12 9Z" fill="#252525"/>
</svg>
